<svg id="Layer_1" enable-background="new 0 0 70 70" height="512" viewBox="0 0 70 70" width="512" xmlns="http://www.w3.org/2000/svg"><g id="_x35_0"><g><g><path d="m66.5813446 59.7211304-7.4992676-9.1246338c-.2160645-.2572021-.4731445-.3909912-.7509766-.3909912h-46.6621084c-.277832 0-.5350342.1337891-.7509766.3909912l-7.4993896 9.1246338c-.833374 1.0184326-.3394775 3.0141602.7509766 3.0141602h28.4139404c.3669434 0 .722168-.1461182.9614258-.4244385.2653809-.3084717.7312012-.6723633 1.4550781-.6723633.7944336 0 1.2352295.3121338 1.473877.6032715.2526855.3083496.619873.4935303 1.0185547.4935303h28.3378896c1.0905762-.0000001 1.5843506-1.9957276.7509766-3.0141602z" fill="#dba660"/></g><g><path d="m66.5813446 59.7211304-7.4992676-9.1246338c-.2160645-.2572021-.4731445-.3909912-.7509766-.3909912l.1760254 1.1383057c-9.7280273 8.1541748-36.5048828 10.4991455-55.4794922 9.9528809.0881348.7631836.5090332 1.4385986 1.1419678 1.4385986h28.4139404c.3669434 0 .722168-.1461182.9614258-.4244385.2653809-.3084717.7312012-.6723633 1.4550781-.6723633.7944336 0 1.2352295.3121338 1.473877.6032715.2526855.3083496.619873.4935303 1.0185547.4935303h28.3378906c1.0905762-.0000001 1.5843506-1.9957276.7509766-3.0141602z" fill="#bf7d5a"/></g><g><g><g><g><g><path d="m54.7174454 42.0960999-19.7175331 8.1369171v9.4720917c1.4879761-1.5651894 9.2289429-5.7599564 21.5973282-2.9507904 2.0480003.4651527 5.6269417 2.7658119 7.1240997 1.5162392 0-.0000001-8.6676483-11.6818391-9.0038948-16.1744576z" fill="#b0b8cf"/></g><g><path d="m63.7213631 58.2706032c-2.077137.4294662-6.5656929-2.0399704-6.5656929-2.0399704-14.8570404-8.1596146-22.155838 3.4745369-22.155838 3.4745369.2051888.3611565.4484253.7577209.6755905 1.116993.3563843.5639572 1.128418.6325226 1.6038475.1646271 4.7130814-4.6386185 15.1270256-2.9559097 18.4120674-1.6962662 3.5000305 1.3420181 9.6785736 1.1809082 9.6785736 1.1809082z" fill="#9ea9c9"/></g><g><path d="m54.7174492 37.9845009-19.7175369 12.2485161v9.4720917c1.7343597-2.1860161 11.4109039-13.0501671 27.5585442-6.7473869-.0000001-.0000001-7.5047646-10.5507165-7.8410073-14.9732209z" fill="#c9cee2"/></g><g><path d="m54.8122292 36.3044281c-7.0962524 1.0286369-13.8579445 1.3230858-19.8123474 9.7545509l.0000305 13.6461296c1.7343597-2.276001 11.4109039-16.3252983 27.5585442-10.860302-.0000001.0000001-7.4099809-8.1352767-7.7462273-12.5403785z" fill="#e3e7f0"/></g></g></g><g><g><g><path d="m15.2823191 42.0960999 19.7175331 8.1369171v9.4720917c-1.4879723-1.5651894-9.228941-5.7599564-21.5973244-2.9507904-2.0480022.4651527-5.6269407 2.7658119-7.1240993 1.5162392-.0000019-.0000001 8.667645-11.6818391 9.0038906-16.1744576z" fill="#c9cee2"/></g><g><path d="m12.8441172 56.2306328s-4.4885559 2.4694366-6.5656929 2.0399704l-1.6484241 2.2008286s6.1784191.1611099 9.6783228-1.1809082c3.2850437-1.2596436 13.69911-2.9423523 18.4120674 1.6962662.4754295.4678955 1.2474632.3993301 1.6038475-.1646271.2272911-.359272.4704018-.7558365.6755943-1.116993 0 0-7.2986756-11.6341515-22.155715-3.4745369z" fill="#9ea9c9"/></g><g><path d="m15.2823172 37.9845009 19.717534 12.2485161v9.4720917c-1.7343597-2.1860161-11.410902-13.0501671-27.5585442-6.7473869.000001-.0000001 7.5047656-10.5507165 7.8410102-14.9732209z" fill="#b0b8cf"/></g><g><path d="m15.1875353 36.3044281c7.0962515 1.0286369 13.8579454 1.3230896 19.8123474 9.7545509l-.0000305 13.6461296c-1.7343559-2.276001-11.4109001-16.3252983-27.5585403-10.860302-.0000015.0000001 7.4099778-8.1352767 7.7462234-12.5403785z" fill="#c9cee2"/></g></g></g></g></g></g><g><g><g><path d="m34.7130165 21.2546024c.6926651 0 1.2541466-.5614796 1.2541466-1.2541447l-.0000038-4.9892683c0-.6926651-.5614777-1.2541428-1.2541428-1.2541428-.6925659 0-1.2540474.5614786-1.2540474 1.2541437l.0000038 4.9892693c0 .6926652.5614777 1.2541428 1.2540436 1.2541428z" fill="#ffd06c"/></g><g><path d="m48.8712997 32.5437393c.3463326.5998688 1.113327.8053856 1.713192.459053l4.3208313-2.4946365c.599865-.3463326.8053818-1.113327.4590454-1.7131939-.3462791-.5997791-1.1132736-.8052959-1.7131386-.4589634l-4.3208351 2.4946365c-.5998649.3463326-.8053779 1.1133271-.459095 1.7131043z" fill="#ffd06c"/></g><g><path d="m43.2858734 24.2795105c.599865.3463345 1.3668594.1408195 1.713192-.4590473l2.4946327-4.3208332c.3463326-.599865.1408157-1.3668594-.4590492-1.713192-.599781-.346283-1.3667755-.1407681-1.7131081.4590969l-2.4946327 4.3208351c-.3463325.599865-.1408157 1.3668594.4589653 1.7131405z" fill="#ffd06c"/></g><g><path d="m26.0652142 24.2795448c.5998669-.3463326.8053837-1.113327.4590511-1.713192l-2.4946365-4.3208332c-.3463326-.599865-1.113327-.8053799-1.713192-.4590454-.5997791.3462811-.8052959 1.1132755-.4589634 1.7131405l2.4946346 4.3208332c.3463326.5998669 1.113327.8053799 1.7131062.4590969z" fill="#ffd06c"/></g><g><path d="m20.4798374 32.5438232c.3463326-.5998669.1408176-1.3668613-.4590473-1.7131939l-4.3208342-2.4946327c-.599865-.3463326-1.3668594-.1408157-1.713192.4590511-.346283.5997791-.1407681 1.3667736.4590979 1.7131062l4.3208332 2.4946346c.5998669.3463326 1.3668595.1408158 1.7131424-.4589653z" fill="#ffd06c"/></g></g><g><g><path d="m34.7131348 13.7570019c-.225296 0-.4256744.075449-.6083336.1796751.3790016.2158203.6457062.6071053.6457062 1.0745411v4.9891424c0 .4674358-.2667046.8587208-.6457062 1.0745411.1826591.1042252.3830376.1796741.6083336.1796741.6925545 0 1.2540398-.5614834 1.2540398-1.2542152v-4.9891424c-.0000001-.6927319-.5614854-1.2542162-1.2540398-1.2542162z" fill="#febc1f"/></g><g><path d="m55.3644524 28.7949638c-.3463669-.5997353-1.1133194-.8053799-1.7132301-.459013l-.0038605.0021057c.1982727.1066818.3797035.2477551.5004234.4569073.3463669.5997353.1407204 1.3668633-.4590149 1.7132301l-4.3171158 2.4922905c.3698807.1989746.8222237.2277527 1.2128067.0022812l4.3209763-2.4945717c.5997352-.3463668.8053779-1.1134948.4590149-1.7132301z" fill="#febc1f"/></g><g><path d="m47.0346947 17.786356c-.390934-.225647-.8434563-.1966953-1.2136841.0028076.5971031.3470669.8016968 1.1117401.4560318 1.7104225l-2.4945717 4.3209743c-.1205444.2088032-.3016205.3498764-.4995461.4563828.0012283.0007019.0017548.0019302.0029831.0026321.5999107.346365 1.3668633.1407223 1.7130547-.4590149l2.4947472-4.3209743c.3463668-.5997353.1407203-1.3668652-.4590149-1.7132301z" fill="#febc1f"/></g><g><path d="m24.029705 18.245369c-.3463669-.5997353-1.1134949-.8053799-1.7132301-.459013-.0010529.0007019-.0017548.0019302-.0028076.0026321.1979237.1065063.3786507.2475796.4993706.4563808l2.4945698 4.3209763c.345665.5986824.1410732 1.3633537-.4560299 1.7104225.3702297.1995029.8229256.2284527 1.2135086.0028076.6000862-.3463669.8053799-1.1134949.4591885-1.7132301z" fill="#febc1f"/></g><g><path d="m20.0207481 30.8306961-4.3207998-2.4947453c-.390583-.2254715-.8429289-.1968708-1.2128067.0021057l4.3171148 2.4926395c.5997353.3463669.8053799 1.1131439.459013 1.7132301-.1208935.2091522-.3021488.3500519-.5004215.4565582l.0038586.0022812c.5997372.3463631 1.3668652.1408958 1.7132301-.4588394.3461914-.6000861.1407223-1.3668631-.4591885-1.71323z" fill="#febc1f"/></g></g></g><g><g><g><path d="m59.8788834 18.3301468c-1.3933372-.4006042-2.3390427-1.281538-2.8371696-2.6426868-.1035767-.2829218-.5008507-.2689104-.5841331.0206022-.4004745 1.3928404-1.2814255 2.3382006-2.64291 2.8359652-.2829819.1034431-.268898.5006714.0207062.5839214 1.3933372.4006615 2.3390388 1.2814808 2.8371658 2.6426868.1035767.2829227.5008507.2689095.5841331-.0206013.4004745-1.3928986 1.2814293-2.3381424 2.64291-2.8359661.2829818-.1034431.2688979-.5006714-.0207024-.5839214z" fill="#986ff9"/></g><g><g><path d="m59.8995743 18.9140663c.2829857-.103447.2689018-.5006638-.0207024-.5839138-.9278717-.2667885-1.6560478-.7478561-2.1869202-1.4406223.2321587 1.2937508.0698586 2.8610668-1.4042015 4.0708942.1485443.2483139.2776527.5174618.3847923.8102036.0939713.2566967.4272995.2664757.55093.0503025.0523491-.1722946.1113777-.3383274.1778641-.4974327.44907-1.1605225 1.2810174-1.9643517 2.4982377-2.4094315z" fill="#7e5af2"/></g></g></g><g><g><path d="m45.0912132 10.1119547c-1.3933411-.4006042-2.3390427-1.281539-2.8371696-2.6426864-.1035767-.2829218-.5008507-.2689104-.5841331.0206017-.4004745 1.3928413-1.2814255 2.3382006-2.64291 2.8359652-.2829819.1034441-.268898.5006723.0207024.5839214 1.3933411.4006624 2.3390427 1.2814817 2.8371696 2.6426868.1035767.2829218.5008507.2689104.5841331-.0206013.4004745-1.3928986 1.2814293-2.3381433 2.64291-2.8359652.2829819-.1034439.268898-.5006722-.0207024-.5839222z" fill="#fa5f7f"/></g><g><g><path d="m45.1119041 10.6958733c.2829857-.103446.2689018-.5006618-.0207024-.5839138-.9278717-.2667875-1.6560478-.7478552-2.1869202-1.4406214.2321587 1.2937498.0698586 2.8610678-1.4042015 4.0708952.1485443.2483139.2776527.5174599.3847923.8102036.0939713.2566967.4272995.2664747.55093.0503016.0523491-.1722946.1113777-.3383274.1778641-.4974318.4490701-1.1605225 1.2810174-1.9643517 2.4982377-2.4094334z" fill="#f34b58"/></g></g></g><g><g><path d="m30.3035412 10.1119547c-1.3933372-.4006042-2.3390427-1.281539-2.8371677-2.6426864-.1035767-.2829218-.5008526-.2689104-.5841331.0206017-.4004765 1.3928413-1.2814255 2.3382006-2.64291 2.8359652-.2829819.1034441-.268898.5006723.0207043.5839214 1.3933392.4006624 2.3390388 1.2814817 2.8371677 2.6426868.1035767.2829218.5008507.2689104.5841312-.0206013.4004745-1.3928986 1.2814293-2.3381433 2.6429119-2.8359652.2829818-.1034439.2688961-.5006722-.0207043-.5839222z" fill="#5094ff"/></g><g><g><path d="m30.3242359 10.6958733c.2829838-.103446.268898-.5006618-.0207043-.5839138-.9278717-.2667875-1.6560497-.7478552-2.1869202-1.4406214.2321587 1.2937498.0698605 2.8610678-1.4042034 4.0708952.1485443.2483139.2776546.5174599.3847923.8102036.0939732.2566967.4272995.2664747.5509319.0503016.0523472-.1722946.1113758-.3383274.1778641-.4974318.4490682-1.1605225 1.2810174-1.9643517 2.4982396-2.4094334z" fill="#497bfe"/></g></g></g><g><g><path d="m15.5158701 19.032774c-1.3933372-.4006042-2.3390417-1.281538-2.8371677-2.6426868-.1035767-.2829208-.5008516-.2689095-.5841322.0206032-.4004774 1.3928413-1.2814264 2.3381996-2.642911 2.8359642-.2829819.1034451-.2688971.5006733.0207043.5839214 1.3933392.4006634 2.3390398 1.2814827 2.8371677 2.6426868.1035767.2829227.5008516.2689114.5841322-.0206013.4004745-1.3928986 1.2814293-2.3381424 2.642911-2.8359642.2829818-.103445.268897-.5006733-.0207043-.5839233z" fill="#78e75a"/></g><g><g><path d="m15.5365648 19.6166935c.2829838-.103447.268899-.5006618-.0207043-.5839138-.9278708-.2667885-1.6560478-.7478561-2.1869192-1.4406223.2321587 1.2937508.0698595 2.8610687-1.4042034 4.0708961.1485434.2483139.2776537.5174599.3847933.8102036.0939713.2566967.4272985.2664738.550931.0503006.0523472-.1722946.1113758-.3383274.1778631-.4974308.4490681-1.1605225 1.2810173-1.9643517 2.4982395-2.4094334z" fill="#72d561"/></g></g></g></g><g><g><path d="m39.3751755 32.5406189c-2.1669769-.6230373-3.6377716-1.9931011-4.4124794-4.1100121-.161087-.440012-.7789421-.4182205-.9084625.0320396-.6228409 2.1662025-1.9929276 3.6364632-4.110363 4.4106064-.4401035.160881-.4181995.7786674.0321999.9081383 2.1669769.623127 3.6377678 1.9930115 4.4124756 4.1100121.161087.4400101.7789459.4182205.9084663-.0320396.6228371-2.1662941 1.9929314-3.6363754 4.110363-4.4106064.4401016-.1608811.4181976-.7786675-.0321999-.9081383z" fill="#ffd06c"/></g><g><g><path d="m39.4073601 33.4487534c.4401054-.1608849.4182014-.7786522-.0321999-.9081268-1.4430618-.4149208-2.5755539-1.1630955-3.4011841-2.2405148.3610611 2.0120945.1086464 4.4496479-2.183876 6.3312206.2310219.3861847.4318199.8047752.5984459 1.2600594.1461487.3992271.6645546.4144325.8568306.0782318.0814133-.2679596.1732178-.5261803.2766228-.7736282.6984062-1.8048897 1.9922866-3.0550347 3.8853607-3.747242z" fill="#febc1f"/></g></g></g><g><g><path d="m49.7535858 39.1005249c-3.1298904.931633-6.1122475 1.9753761-8.9336891 3.6455688 2.4000893-2.2351341 5.6975212-3.4028587 8.9336891-3.6455688z" fill="#fff"/></g></g><g><path d="m16.1313934 38.5962524c-1.7101297 4.9128647-3.0016842 6.3841324-3.1884756 6.7373047l.3310547-.3232422c2.7776499-2.7232552 2.9676237-6.6949425 3.0097647-6.8525391z" fill="#fff"/></g></g></svg>