<svg xmlns="http://www.w3.org/2000/svg" xmlns:xlink="http://www.w3.org/1999/xlink" version="1.1" x="0px" y="0px" viewBox="0 0 100 125" enable-background="new 0 0 100 100" xml:space="preserve"><g><rect x="18.8" y="48.3" width="3.5" height="3.5"/><rect x="67.3" y="48.3" width="3.5" height="3.5"/><path d="M5,41.3v6.9h3.5v3.5h3.5v3.5h3.5v3.5h24.2v-3.5h3.5v-3.5h3.5v-6.9h6.9v6.9h3.5v3.5h3.5v3.5h24.2v-3.5h3.5v-3.5h3.5v-3.5H95   v-6.9H5z M29.2,55.2h-3.5v-3.5h-3.5v3.5h-3.5v-3.5h-3.5v-3.5h-3.5v-3.5h3.5v3.5h3.5v-3.5h3.5v3.5h3.5v3.5h3.5V55.2z M77.7,55.2   h-3.5v-3.5h-3.5v3.5h-3.5v-3.5h-3.5v-3.5h-3.5v-3.5h3.5v3.5h3.5v-3.5h3.5v3.5h3.5v3.5h3.5V55.2z"/></g><text x="0" y="115" fill="#000000" font-size="5px" font-weight="bold" font-family="'Helvetica Neue', Helvetica, Arial-Unicode, Arial, Sans-serif">Created by Zach Bogart</text><text x="0" y="120" fill="#000000" font-size="5px" font-weight="bold" font-family="'Helvetica Neue', Helvetica, Arial-Unicode, Arial, Sans-serif">from the Noun Project</text></svg>