<?xml version="1.0" encoding="UTF-8"?>
<svg width="700pt" height="700pt" version="1.1" viewBox="0 0 700 700" xmlns="http://www.w3.org/2000/svg">
 <path d="m131.6 338.1h24.5v24.5h-24.5z"/>
 <path d="m471.1 338.1h24.5v24.5h-24.5z"/>
 <path d="m35 289.1v48.301h24.5v24.5h24.5v24.5h24.5v24.5h169.4v-24.5h24.5v-24.5h24.5v-48.301h48.301v48.301h24.5v24.5h24.5v24.5h169.4v-24.5h24.5v-24.5h24.5v-24.5l22.402-0.003906v-48.301zm169.4 97.297h-24.5v-24.5h-24.5v24.5h-24.5v-24.5h-24.5v-24.5h-24.5v-24.5h24.5v24.5h24.5v-24.5h24.5v24.5h24.5v24.5h24.5zm339.5 0h-24.5v-24.5h-24.5v24.5h-24.5v-24.5h-24.5v-24.5h-24.5v-24.5h24.5v24.5h24.5v-24.5h24.5v24.5h24.5v24.5h24.5z"/>
</svg>
